Simulation
nRows=42
nColumns=15
endheader
time  TH_x TH_y TH_z SC_y  SC_z  SC_x  AC_y  AC_z  AC_x  GH_y  GH_z  GH_yy  EL_x  PS_y
0.0  0.000000  0.000000  0.000000  -40.97484877243662  6.293857566463173  5.843338816418566  48.94041708542753  -0.5663487116524494  2.690308355124389  -43.66786284338474  2.819854564079695  64.47028546852604  22.923994604456784  120.000000
0.028900000000000006  0.000000  0.000000  0.000000  -40.47488868126139  5.2117204056918345  3.948952013934257  48.423020212113315  1.032061886570942  2.6324062435112836  -36.496957541967284  3.838399551582228  57.46579289709309  22.821547542505197  120.000000
0.05780000000000001  0.000000  0.000000  0.000000  -40.02046125629007  4.111763125209136  2.068027311822462  47.95792370754059  2.5947144046640056  2.619056259592035  -31.420251952503722  4.820351294662173  52.53764003142736  22.73181973260018  120.000000
0.08670000000000001  0.000000  0.000000  0.000000  -39.61612988632593  3.0496624258950877  0.20225806496392207  47.52385018555378  4.102395745258052  2.668242267576856  -27.21159088093111  5.746264187437856  48.43752024849191  22.619636866251703  120.000000
0.11560000000000002  0.000000  0.000000  0.000000  -39.27921419440269  2.0458975079986237  -1.6406332379393964  47.08594930865417  5.544396537280788  2.809652096955911  -23.413322815168925  6.627525951691349  44.688548348310285  22.470433100054407  120.000000
0.14450000000000002  0.000000  0.000000  0.000000  -39.01930785415787  1.1182136571582821  -3.4612708187955086  46.64366692429677  6.9200752607729195  3.0532947401819177  -19.740706115717728  7.477258130100418  40.985079191666394  22.283702889430067  120.000000
0.17340000000000003  0.000000  0.000000  0.000000  -38.81936904510076  0.28065095766058057  -5.263377990222467  46.20567186223951  8.21901914453431  3.4077321531033338  -16.171451663831157  8.319375790008394  37.302952390775246  22.070156173367554  120.000000
0.20230000000000004  0.000000  0.000000  0.000000  -38.67921755324172  -0.46386423521117054  -7.0478709688785015  45.77966165608046  9.444899543893143  3.8726869728137716  -12.764320003681751  9.191677706991584  33.69836139885374  21.86124636000409  120.000000
0.23120000000000004  0.000000  0.000000  0.000000  -38.583223145384295  -1.1069541796537454  -8.814947038227846  45.362696453759234  10.599479763744462  4.449930179867536  -9.688902845294159  10.126655671579526  30.3519880561818  21.689499668307125  120.000000
0.26010000000000005  0.000000  0.000000  0.000000  -38.520150727773924  -1.654487893110002  -10.565066091585415  44.96031340477362  11.693011218873606  5.132100285445255  -7.089569746941391  11.15797834754052  27.417223064356783  21.588440657314433  120.000000
0.28900000000000003  0.000000  0.000000  0.000000  -38.47230309957843  -2.1070205487777245  -12.297606382402533  44.56571838889403  12.735138038973407  5.913482530185687  -5.073029713564619  12.306924361558105  25.00996347937811  21.584727784252934  120.000000
0.31790000000000007  0.000000  0.000000  0.000000  -38.42795115421251  -2.4741932968575324  -14.013681708268873  44.18151027998027  13.739171475513364  6.78298745819601  -3.6640423295517013  13.591790901068807  23.157834685506796  21.690079556073233  120.000000
0.34680000000000005  0.000000  0.000000  0.000000  -38.37452377731983  -2.7635868186402197  -15.71132261583744  43.79683878217725  14.712098399626012  7.732484436106561  -2.8307764278310414  15.02128957770995  21.82405657335557  21.901952521866107  120.000000
0.3757000000000001  0.000000  0.000000  0.000000  -38.3069749380177  -2.9902278384366348  -17.392763560000017  43.41766462645153  15.665874115845074  8.745997510629987  -2.470686716374729  16.60457023141089  20.89327390234565  22.196164824461764  120.000000
0.40460000000000007  0.000000  0.000000  0.000000  -38.223139033558574  -3.1652542141509077  -19.0514181745704  43.03535145115571  16.600012687795473  9.81357965049194  -2.4741946870096654  18.343626432719425  20.236100382328264  22.539163719187144  120.000000
0.4335000000000001  0.000000  0.000000  0.000000  -38.12537946661206  -3.306848128487183  -20.68558891525672  42.662238823407634  17.523864350294453  10.913352333152652  -2.7167852210217895  20.240499522754806  19.707081157546245  22.883426787847515  120.000000
0.4624000000000001  0.000000  0.000000  0.000000  -38.01736540760235  -3.424670582744333  -22.283993695679108  42.28999087220093  18.431005435075317  12.039961581761045  -3.111721331741385  22.28806228665452  19.19840687649383  23.18728441867062  120.000000
0.49130000000000007  0.000000  0.000000  0.000000  -37.90736026390843  -3.531853872209413  -23.84263955748913  41.93501353429999  19.329503780266588  13.16856358140502  -3.581554428348391  24.477128177162164  18.622887714062315  23.41476837867234  120.000000
0.5202000000000001  0.000000  0.000000  0.000000  -37.79391711512488  -3.6283811464285134  -25.363531644931655  41.61140733686576  20.21854469782989  14.2876845080703  -4.0699849816801805  26.793225268995776  17.920552533598602  23.548936115177852  120.000000
0.5491000000000001  0.000000  0.000000  0.000000  -37.677319136717706  -3.7445449454715365  -26.83573942802507  41.312853980164974  21.103305515055954  15.400477900032575  -4.556934882556163  29.223001078542385  17.07795079775081  23.570217664603454  120.000000
0.5780000000000001  0.000000  0.000000  0.000000  -37.567067733079426  -3.887657710916383  -28.2460030133331  41.005119025404696  21.97377276177529  16.536370673438153  -5.041683144762971  31.751094468474903  16.108071496828803  23.486737962505646  120.000000
0.6069000000000001  0.000000  0.000000  0.000000  -37.470969054027975  -4.017329393731129  -29.62292981716585  40.74383428466069  22.85549831956812  17.62629104334674  -5.4848861237779065  34.35335078381959  15.020163189158271  23.334838405858154  120.000000
0.6358000000000001  0.000000  0.000000  0.000000  -37.38502344354064  -4.128208667391706  -30.980855606935997  40.55853341416584  23.749678279568624  18.654304639699472  -5.871405772932098  37.01124226591185  13.83605204617153  23.137512715087198  120.000000
0.6647000000000002  0.000000  0.000000  0.000000  -37.30776268436112  -4.287461918675284  -32.28056258630133  40.3741406412645  24.63256854957285  19.709563058490374  -6.21209652834374  39.69741042719569  12.597170195086926  22.886441486742996  120.000000
0.6936000000000001  0.000000  0.000000  0.000000  -37.25850125009581  -4.496206755900476  -33.516021645271564  40.153690095459496  25.492656905089135  20.841425207292804  -6.482774932785336  42.394669373275015  11.317975092839268  22.60944895941577  120.000000
0.7225000000000001  0.000000  0.000000  0.000000  -37.25426468206666  -4.653643757209133  -34.76497953182865  40.004981490977414  26.38322343266009  21.9047036986931  -6.629060751571199  45.06722914256951  10.010086916720969  22.349300205100626  120.000000
0.7514000000000002  0.000000  0.000000  0.000000  -37.31376111350298  -4.752556802615652  -36.026236020108655  39.93389968849254  27.29584385023323  22.91220745263677  -6.646077632622804  47.69156555728725  8.698607634345736  22.111485382278193  120.000000
0.7803000000000001  0.000000  0.000000  0.000000  -37.44934422433557  -4.852344530144925  -37.23507620108813  39.83900856137197  28.1725978822484  24.024227276490635  -6.530864502265122  50.21851842267814  7.3869187425147995  21.869414421792744  120.000000
0.8092000000000001  0.000000  0.000000  0.000000  -37.661759175336144  -4.923453203213991  -38.41213148642234  39.7332582834483  29.012536822311624  25.250016869031647  -6.249543132303545  52.62149945872  6.06243138860349  21.626772762085686  120.000000
0.8381000000000002  0.000000  0.000000  0.000000  -37.9688790971552  -4.864465858317874  -39.630766244239574  39.693003327800014  29.8609501042962  26.474366902512553  -5.781987366549244  54.859746747495464  4.714802387268037  21.39265543908034  120.000000
0.8670000000000002  0.000000  0.000000  0.000000  -38.399320154803384  -4.697880852844714  -40.84548486163179  39.62174305443116  30.694573128574692  27.82051771453329  -5.163971243820956  56.92238317821801  3.3485753243724177  21.14434112519356  120.000000
0.8959000000000001  0.000000  0.000000  0.000000  -39.02707212747715  -4.392490016765693  -42.05745663333097  39.487268595701764  31.515972846679787  29.290252199840797  -4.433516368883725  58.79522254103524  1.973108058737642  20.911381811259755  120.000000
0.9248000000000002  0.000000  0.000000  0.000000  -39.85935762728904  -3.8590288560039765  -43.34398272033633  39.4288804033354  32.3552055895218  30.669229420864657  -3.666751846183011  60.49373854894504  0.5914692382856654  20.672844851059306  120.000000
0.9537000000000002  0.000000  0.000000  0.000000  -40.79416146749961  -3.292924328263595  -44.533155995555425  39.198940122033775  33.10407264263088  32.27657913512337  -3.0286551941415234  62.01262817453626  -0.8022903257044999  20.363764408008606  120.000000
0.9826000000000001  0.000000  0.000000  0.000000  -41.82178482375639  -2.5699770270974382  -45.692537888825065  38.837013596906594  33.783712738851875  33.96798332506252  -2.607348138706007  63.37985858899056  -2.245221655549801  19.97353656642115  120.000000
1.0115000000000003  0.000000  0.000000  0.000000  -42.929082323045876  -1.6526582680533464  -46.832204508688456  38.23843541022132  34.468660102278136  35.58678731132884  -2.5709682114861887  64.69705527766217  -3.723432847330246  19.53932310934444  120.000000
1.0404000000000002  0.000000  0.000000  0.000000  -44.18803422909715  -0.6041401488882826  -47.77430179208044  37.20762236985869  35.06890659643624  37.25656367102977  -3.0450266509266117  66.06748395449583  -5.224820794273115  19.106374613309757  120.000000
1.0693000000000001  0.000000  0.000000  0.000000  -45.54235173994838  0.636722024099439  -48.45225147973115  35.8309308111514  35.558668286456374  38.69287807609683  -4.191300241975054  67.64188476855195  -6.823909862290004  18.633097904153338  120.000000
1.0982000000000003  0.000000  0.000000  0.000000  -47.21915490723833  2.0443475630232517  -48.56584148082583  34.221647283604405  35.76484572231738  39.967424843437946  -5.922484831029877  69.65495957669488  -8.628333021862389  18.271732661294433  120.000000
1.1271000000000002  0.000000  0.000000  0.000000  -49.3179076664498  3.8357061597442637  -47.9819669226255  32.74466505709688  35.6680168381808  40.732024391476244  -8.137891241738233  72.28490144836206  -10.82624527113333  18.086001272926772  120.000000
1.1560000000000001  0.000000  0.000000  0.000000  -51.86126618347175  6.066155642933802  -46.38476851322237  31.844148577109046  35.02996663670255  41.01764735057222  -10.497500966213654  75.80854559084383  -13.679429410848867  18.197965481571156  120.000000
1.1849000000000003  0.000000  0.000000  0.000000  -54.59189440684091  8.756201305910835  -43.71463303732291  31.787960499700084  33.90272588424158  40.65766416502297  -12.770608190124765  80.17174435685185  -17.374722065651056  18.47526694287772  120.000000
